nColumns=19
nRows=112
DataType=double
version=3
OpenSimVersion=4.1
endheader
time	ground_force_calcn_r_vx	ground_force_calcn_r_vy	ground_force_calcn_r_vz	ground_force_calcn_r_px	ground_force_calcn_r_py	ground_force_calcn_r_pz	ground_force_calcn_r_mx	ground_force_calcn_r_my	ground_force_calcn_r_mz	ground_force_calcn_l_vx	ground_force_calcn_l_vy	ground_force_calcn_l_vz	ground_force_calcn_l_px	ground_force_calcn_l_py	ground_force_calcn_l_pz	ground_force_calcn_l_mx	ground_force_calcn_l_my	ground_force_calcn_l_mz
1.29	-16.6237	86.2002	-17.9688	-0.335825	0	-0.449317	-0.00859168	0.0445512	-0.00928688	-24.1207	138.673	28.1162	-0.335465	0	-0.752246	-0.162097	0.931912	0.188947
1.3	-87.5521	869.706	-107.097	-0.297493	0	-0.451697	0.130951	-1.30081	0.160185	-67.8535	921.585	77.6686	-0.310092	0	-0.750343	-0.169299	2.29942	0.193789
1.31	-164.504	1506.56	-134.9	-0.283186	0	-0.454999	0.407299	-3.73012	0.334002	-104.643	1301.83	14.1243	-0.299252	0	-0.745701	-0.355117	4.41791	0.0479324
1.32	-167.743	882.996	-4.57078	-0.276496	0	-0.462342	0.0161679	-0.0851073	0.000440553	-92.6677	649.848	-42.4872	-0.296684	0	-0.739105	-0.296202	2.07716	-0.135806
1.33	-80.5755	202.875	38.7386	-0.266514	0	-0.475451	-0.746744	1.88017	0.359015	-95.4563	217.744	5.65326	-0.26091	0	-0.746447	-0.651151	1.48533	0.0385635
1.34	0	0	0	0	0	0	0	0	0	-144.406	179.488	40.8966	-0.209829	0	-0.759088	-0.491838	0.611324	0.139291
1.35	-109.355	119.449	-26.5125	-0.193284	0	-0.438379	0.212254	-0.231845	0.0514597	-205.445	324.852	36.4238	-0.216338	0	-0.751039	-0.797204	1.26055	0.141338
1.36	-226.716	347.486	-45.1302	-0.20296	0	-0.44895	0.949799	-1.45575	0.189068	-179.677	487.361	3.32368	-0.230182	0	-0.743416	-1.03766	2.81458	0.0191947
1.37	-186.416	450.139	5.21988	-0.210444	0	-0.46156	0.755674	-1.82473	-0.0211598	-115.125	609.67	-1.79055	-0.239992	0	-0.741714	-0.807622	4.27693	-0.012561
1.38	-107.994	534.472	19.4758	-0.221888	0	-0.465279	0.588253	-2.91132	-0.106086	-76.8744	661.085	10.4846	-0.243246	0	-0.742963	-0.559564	4.812	0.0763171
1.39	-52.6386	597.349	-6.74754	-0.230288	0	-0.462261	0.361954	-4.1075	0.0463975	-72.429	640.297	19.9267	-0.240395	0	-0.745144	-0.589289	5.20951	0.162125
1.4	-36.4865	547.018	-19.8797	-0.23104	0	-0.459121	0.298616	-4.47694	0.162701	-80.4654	580.313	23.0117	-0.232869	0	-0.747363	-0.79099	5.70458	0.226209
1.41	-48.1692	441.712	-12.7712	-0.224366	0	-0.457075	0.510889	-4.68485	0.135453	-90.2886	531.451	22.6429	-0.222791	0	-0.74929	-1.05033	6.18241	0.263407
1.42	-61.7901	374.492	0.496583	-0.21559	0	-0.456695	0.819249	-4.96523	-0.00658399	-103.76	514.663	23.8688	-0.213346	0	-0.750786	-1.24698	6.18515	0.286852
1.43	-60.8282	366.759	9.10256	-0.212248	0	-0.458171	0.848831	-5.11796	-0.127022	-111.37	520.846	27.0711	-0.207449	0	-0.751678	-1.23257	5.76436	0.299604
1.44	-49.3592	389.591	8.73731	-0.213197	0	-0.459158	0.646686	-5.10429	-0.114473	-104.629	537.558	24.8227	-0.205525	0	-0.751205	-1.10567	5.68062	0.262313
1.45	-38.7866	417.402	5.08631	-0.214215	0	-0.459712	0.48935	-5.26614	-0.0641712	-88.6379	556.055	15.8638	-0.205686	0	-0.749893	-0.982068	6.16084	0.175764
1.46	-30.3429	449.287	8.39411	-0.215038	0	-0.461725	0.395596	-5.85757	-0.109438	-73.8723	567.794	8.87714	-0.20568	0	-0.74914	-0.879093	6.75685	0.10564
1.47	-22.9886	478.658	15.6058	-0.215446	0	-0.464386	0.319694	-6.6565	-0.217024	-67.3989	572.728	7.71807	-0.204387	0	-0.749271	-0.843246	7.16556	0.0965629
1.48	-23.8519	496.405	18.5483	-0.213709	0	-0.465618	0.351008	-7.30515	-0.272959	-66.7069	574.611	8.79082	-0.202398	0	-0.749742	-0.86817	7.47839	0.11441
1.49	-35.778	497.94	15.748	-0.209379	0	-0.465471	0.554217	-7.71331	-0.243943	-67.0106	575.898	8.35659	-0.200771	0	-0.75001	-0.913784	7.85317	0.113954
1.5	-50.8493	492.841	14.7363	-0.204214	0	-0.46551	0.822197	-7.9689	-0.238276	-67.0768	579.575	5.44109	-0.199897	0	-0.749973	-0.979404	8.46251	0.0794465
1.51	-57.7577	495.992	18.0737	-0.201082	0	-0.46639	0.965659	-8.29256	-0.302177	-66.3225	589.908	2.15756	-0.199466	0	-0.749711	-1.02298	9.09893	0.0332789
1.52	-56.2396	507.287	20.4101	-0.200082	0	-0.467533	0.955565	-8.61929	-0.346788	-63.2339	605.493	0.437646	-0.199726	0	-0.749257	-1.00541	9.62727	0.00695852
1.53	-53.4723	521.452	18.7299	-0.199515	0	-0.467924	0.903911	-8.81478	-0.316615	-58.3179	618.759	-0.434838	-0.200317	0	-0.748774	-0.95513	10.134	-0.00712177
1.54	-52.7375	533.568	15.8132	-0.198566	0	-0.467707	0.878993	-8.89317	-0.263564	-54.998	625.749	-2.1195	-0.200396	0	-0.748274	-0.936551	10.6558	-0.0360925
1.55	-52.1061	540.432	14.4393	-0.197533	0	-0.467314	0.873453	-9.05925	-0.242045	-54.5125	628.159	-4.41661	-0.199901	0	-0.747942	-0.963007	11.0969	-0.078023
1.56	-51.2763	541.866	14.2687	-0.196449	0	-0.466959	0.882126	-9.32194	-0.24547	-54.0576	629.33	-4.83971	-0.199201	0	-0.747983	-0.969365	11.2852	-0.086786
1.57	-51.9926	538.54	13.6982	-0.194888	0	-0.466516	0.925651	-9.58791	-0.243876	-51.3112	630.952	-2.08718	-0.198575	0	-0.748231	-0.907362	11.1575	-0.0369087
1.58	-54.0335	532.865	13.2426	-0.192788	0	-0.466521	1.00149	-9.87643	-0.245445	-46.8161	632.575	1.90081	-0.197925	0	-0.748648	-0.802064	10.8374	0.0325652
1.59	-54.7531	526.603	14.4433	-0.190626	0	-0.466999	1.05904	-10.1856	-0.279362	-43.1955	630.775	5.10631	-0.196687	0	-0.749086	-0.718837	10.497	0.0849766
1.6	-53.3602	519.636	16.3408	-0.188525	0	-0.467746	1.07025	-10.4224	-0.327747	-41.5694	622.01	6.98962	-0.194601	0	-0.749615	-0.682501	10.2124	0.114758
1.61	-51.6131	513.287	16.518	-0.186522	0	-0.468356	1.05298	-10.4718	-0.336991	-40.9816	606.664	8.15885	-0.192403	0	-0.75023	-0.674133	9.97942	0.13421
1.62	-49.3375	505.82	14.7848	-0.184664	0	-0.468557	1.00752	-10.3293	-0.301921	-40.373	588.4	8.91454	-0.190363	0	-0.750747	-0.666952	9.7202	0.147266
1.63	-46.7297	495.491	12.2106	-0.182772	0	-0.468686	0.950149	-10.0748	-0.248276	-38.3035	570.732	9.23469	-0.188726	0	-0.751141	-0.631299	9.40652	0.152202
1.64	-43.7923	483.427	9.5727	-0.180958	0	-0.468923	0.888885	-9.81247	-0.194304	-34.0834	554.896	9.469	-0.187571	0	-0.751411	-0.553606	9.01301	0.153802
1.65	-39.827	470.976	7.07751	-0.179123	0	-0.469375	0.807407	-9.54802	-0.143481	-28.6761	540.56	10.2253	-0.186631	0	-0.75182	-0.452561	8.53102	0.161373
1.66	-34.4848	460.188	4.9803	-0.177049	0	-0.469829	0.695705	-9.28393	-0.100474	-22.5988	526.326	11.4127	-0.185474	0	-0.752396	-0.344288	8.01847	0.17387
1.67	-30.2381	451.602	2.448	-0.173956	0	-0.469859	0.596105	-8.90273	-0.048259	-15.2852	509.777	11.8387	-0.184156	0	-0.752856	-0.226127	7.54157	0.17514
1.68	-29.0313	440.208	-0.994349	-0.169593	0	-0.469269	0.5431	-8.23515	0.0186017	-6.93511	490.876	11.3679	-0.182856	0	-0.753101	-0.0998962	7.07079	0.163747
1.69	-28.0743	427.131	-3.86877	-0.164981	0	-0.468704	0.494056	-7.51672	0.0680832	0.782253	473.984	11.4419	-0.18168	0	-0.753464	0.0107551	6.51674	0.157313
1.7	-24.9833	418.073	-6.0584	-0.160483	0	-0.468342	0.414474	-6.93587	0.100509	6.14798	462.493	12.9223	-0.180341	0	-0.753903	0.0779882	5.8668	0.163922
1.71	-21.2879	414.539	-8.9797	-0.155486	0	-0.467993	0.326775	-6.36328	0.137841	8.29628	455.162	14.2844	-0.178234	0	-0.754223	0.0950908	5.21701	0.163726
1.72	-19.3369	414.16	-11.5172	-0.149649	0	-0.467719	0.273182	-5.85102	0.162709	8.0979	448.913	14.9342	-0.175608	0	-0.754272	0.0843319	4.675	0.155526
1.73	-18.5465	414.314	-12.1152	-0.143948	0	-0.467875	0.249608	-5.57604	0.163053	6.84976	442.24	15.6366	-0.172914	0	-0.754009	0.0665117	4.29419	0.151832
1.74	-18.1	412.635	-11.5124	-0.138588	0	-0.468163	0.239742	-5.46553	0.152487	4.82708	435.237	16.1616	-0.170081	0	-0.753735	0.0448684	4.04559	0.150225
1.75	-18.3671	411.768	-10.7663	-0.133397	0	-0.468193	0.241296	-5.40957	0.141441	2.0124	429.729	16.6299	-0.167223	0	-0.753442	0.017823	3.80592	0.147284
1.76	-19.9986	414.524	-10.305	-0.128744	0	-0.468132	0.259189	-5.37238	0.133556	-0.906002	427.33	17.4614	-0.164381	0	-0.753085	-0.00749869	3.53688	0.144522
1.77	-22.0225	419.967	-9.88019	-0.12523	0	-0.468117	0.283941	-5.41471	0.127387	-3.61463	427.041	18.1861	-0.161686	0	-0.752674	-0.0283649	3.3511	0.142711
1.78	-23.7256	425.356	-9.94767	-0.12245	0	-0.468147	0.302899	-5.43044	0.127	-5.92744	426.873	18.172	-0.158902	0	-0.752026	-0.0446937	3.21868	0.13702
1.79	-26.0249	430.5	-10.5444	-0.119785	0	-0.467993	0.321008	-5.31005	0.130061	-9.40593	427.137	17.8322	-0.156328	0	-0.751142	-0.067556	3.06782	0.128075
1.8	-28.6245	436.974	-11.6245	-0.117291	0	-0.467481	0.335721	-5.12503	0.136337	-15.147	428.955	17.7109	-0.153668	0	-0.750353	-0.102778	2.91062	0.120175
1.81	-31.8671	444.574	-13.4852	-0.114797	0	-0.46679	0.348216	-4.85793	0.147355	-21.7963	431.678	18.1053	-0.151172	0	-0.749989	-0.136661	2.70658	0.113518
1.82	-35.637	452.531	-15.6072	-0.112586	0	-0.465912	0.356878	-4.53177	0.156294	-28.844	434.583	18.6968	-0.148889	0	-0.749509	-0.161238	2.42933	0.104516
1.83	-40.3882	460.496	-17.0688	-0.110562	0	-0.465124	0.377972	-4.30954	0.159738	-36.484	438.071	19.5106	-0.146989	0	-0.749223	-0.17943	2.15445	0.0959537
1.84	-46.9354	468.55	-17.7225	-0.108547	0	-0.464431	0.416049	-4.15336	0.157097	-44.8627	441.605	20.436	-0.145308	0	-0.749136	-0.197218	1.94131	0.0898373
1.85	-54.4658	475.719	-17.8391	-0.106764	0	-0.463697	0.460847	-4.02516	0.15094	-53.7711	444.022	20.7004	-0.143552	0	-0.748923	-0.218815	1.80689	0.0842378
1.86	-62.6427	481.251	-17.9861	-0.105182	0	-0.462943	0.503185	-3.86571	0.144476	-63.3156	444.677	20.1632	-0.14197	0	-0.748602	-0.251535	1.76658	0.0801029
1.87	-71.3039	483.881	-18.4529	-0.103636	0	-0.462078	0.525608	-3.56687	0.136024	-73.1923	441.844	19.5818	-0.140225	0	-0.748421	-0.278174	1.67927	0.0744223
1.88	-79.575	481.349	-19.865	-0.102043	0	-0.46102	0.516503	-3.12432	0.128939	-81.1902	431.159	19.9645	-0.138352	0	-0.748538	-0.272807	1.44874	0.0670827
1.89	-85.8339	468.599	-22.1711	-0.10051	0	-0.459472	0.454338	-2.4804	0.117357	-82.7217	404.85	21.3578	-0.136486	0	-0.749051	-0.219446	1.074	0.0566585
1.9	-84.7596	436.106	-24.1497	-0.0989328	0	-0.457632	0.310145	-1.59576	0.0883664	-71.6352	353.523	22.3479	-0.134083	0	-0.750317	-0.134195	0.66226	0.0418646
1.91	-71.4358	376.722	-23.7653	-0.0971075	0	-0.455322	0.14366	-0.757603	0.047793	-44.5378	269.562	20.3814	-0.131197	0	-0.752053	-0.0797542	0.482707	0.0364973
1.92	-44.0689	288.27	-19.498	-0.0952039	0	-0.451881	0.0682695	-0.446574	0.0302054	-10.1289	155.032	14.5241	-0.125748	0	-0.752613	-0.0418451	0.640478	0.0600029
1.93	-9.69067	173.898	-12.4429	-0.0928686	0	-0.447724	0.0300103	-0.538532	0.0385334	8.41465	46.4588	8.32026	-0.10493	0	-0.740873	0.0996447	0.550156	0.0985268
1.94	11.6593	62.139	-4.97351	-0.0885334	0	-0.445958	-0.0775332	-0.413219	0.0330734	0	0	0	0	0	0	0	0	0
1.95	0	0	0	0	0	0	0	0	0	0	0	0	0	0	0	0	0	0
1.96	0	0	0	0	0	0	0	0	0	0	0	0	0	0	0	0	0	0
1.97	0	0	0	0	0	0	0	0	0	0	0	0	0	0	0	0	0	0
1.98	0	0	0	0	0	0	0	0	0	0	0	0	0	0	0	0	0	0
1.99	0	0	0	0	0	0	0	0	0	0	0	0	0	0	0	0	0	0
2	0	0	0	0	0	0	0	0	0	0	0	0	0	0	0	0	0	0
2.01	0	0	0	0	0	0	0	0	0	0	0	0	0	0	0	0	0	0
2.02	0	0	0	0	0	0	0	0	0	0	0	0	0	0	0	0	0	0
2.03	0	0	0	0	0	0	0	0	0	0	0	0	0	0	0	0	0	0
2.04	0	0	0	0	0	0	0	0	0	0	0	0	0	0	0	0	0	0
2.05	0	0	0	0	0	0	0	0	0	0	0	0	0	0	0	0	0	0
2.06	0	0	0	0	0	0	0	0	0	0	0	0	0	0	0	0	0	0
2.07	0	0	0	0	0	0	0	0	0	0	0	0	0	0	0	0	0	0
2.08	0	0	0	0	0	0	0	0	0	0	0	0	0	0	0	0	0	0
2.09	0	0	0	0	0	0	0	0	0	0	0	0	0	0	0	0	0	0
2.1	0	0	0	0	0	0	0	0	0	0	0	0	0	0	0	0	0	0
2.11	0	0	0	0	0	0	0	0	0	0	0	0	0	0	0	0	0	0
2.12	0	0	0	0	0	0	0	0	0	0	0	0	0	0	0	0	0	0
2.13	0	0	0	0	0	0	0	0	0	0	0	0	0	0	0	0	0	0
2.14	0	0	0	0	0	0	0	0	0	0	0	0	0	0	0	0	0	0
2.15	0	0	0	0	0	0	0	0	0	0	0	0	0	0	0	0	0	0
2.16	0	0	0	0	0	0	0	0	0	0	0	0	0	0	0	0	0	0
2.17	0	0	0	0	0	0	0	0	0	0	0	0	0	0	0	0	0	0
2.18	0	0	0	0	0	0	0	0	0	0	0	0	0	0	0	0	0	0
2.19	0	0	0	0	0	0	0	0	0	0	0	0	0	0	0	0	0	0
2.2	0	0	0	0	0	0	0	0	0	0	0	0	0	0	0	0	0	0
2.21	0	0	0	0	0	0	0	0	0	0	0	0	0	0	0	0	0	0
2.22	0	0	0	0	0	0	0	0	0	0	0	0	0	0	0	0	0	0
2.23	0	0	0	0	0	0	0	0	0	0	0	0	0	0	0	0	0	0
2.24	0	0	0	0	0	0	0	0	0	0	0	0	0	0	0	0	0	0
2.25	0	0	0	0	0	0	0	0	0	0	0	0	0	0	0	0	0	0
2.26	0	0	0	0	0	0	0	0	0	0	0	0	0	0	0	0	0	0
2.27	0	0	0	0	0	0	0	0	0	0	0	0	0	0	0	0	0	0
2.28	0	0	0	0	0	0	0	0	0	0	0	0	0	0	0	0	0	0
2.29	0	0	0	0	0	0	0	0	0	0	0	0	0	0	0	0	0	0
2.3	0	0	0	0	0	0	0	0	0	0	0	0	0	0	0	0	0	0
2.31	0	0	0	0	0	0	0	0	0	0	0	0	0	0	0	0	0	0
2.32	0	0	0	0	0	0	0	0	0	0	0	0	0	0	0	0	0	0
2.33	0	0	0	0	0	0	0	0	0	0	0	0	0	0	0	0	0	0
2.34	0	0	0	0	0	0	0	0	0	0	0	0	0	0	0	0	0	0
2.35	0	0	0	0	0	0	0	0	0	0	0	0	0	0	0	0	0	0
2.36	0	0	0	0	0	0	0	0	0	0	0	0	0	0	0	0	0	0
2.37	0	0	0	0	0	0	0	0	0	0	0	0	0	0	0	0	0	0
2.38	0	0	0	0	0	0	0	0	0	0	0	0	0	0	0	0	0	0
2.39	0	0	0	0	0	0	0	0	0	0	0	0	0	0	0	0	0	0
2.4	-70.6299	147.205	-23.951	-0.18144	0	-0.41159	-0.205293	0.427867	-0.0696162	0	0	0	0	0	0	0	0	0
